<?xml version="1.0" standalone="no"?>
<!DOCTYPE svg PUBLIC "-//W3C//DTD SVG 20010904//EN"
 "http://www.w3.org/TR/2001/REC-SVG-20010904/DTD/svg10.dtd">
<svg version="1.0" xmlns="http://www.w3.org/2000/svg"
 width="1210.000000pt" height="1210.000000pt" viewBox="0 0 1210.000000 1210.000000"
 preserveAspectRatio="xMidYMid meet">
<metadata>
Created by potrace 1.11, written by Peter Selinger 2001-2013
</metadata>
<g transform="translate(0.000000,1210.000000) scale(0.100000,-0.100000)"
fill="#000000" stroke="none">
<path d="M5779 11976 c-2 -2 -61 -7 -131 -10 -69 -4 -135 -8 -145 -10 -10 -2
-47 -7 -83 -10 -36 -4 -76 -8 -90 -10 -14 -2 -50 -6 -80 -10 -30 -4 -66 -9
-80 -11 -14 -3 -41 -7 -60 -10 -40 -6 -133 -23 -170 -30 -14 -3 -41 -8 -60
-11 -214 -36 -744 -192 -995 -292 -273 -109 -635 -283 -795 -382 -8 -5 -69
-42 -135 -81 -234 -140 -505 -335 -735 -528 -113 -95 -255 -226 -385 -356
-346 -346 -683 -782 -915 -1185 -11 -19 -29 -48 -38 -65 -55 -91 -187 -347
-247 -480 -169 -369 -348 -916 -409 -1246 -1 -8 -8 -39 -14 -69 -14 -68 -18
-91 -37 -210 -22 -144 -27 -184 -50 -400 -27 -247 -27 -881 -1 -1085 2 -16 7
-61 10 -100 4 -38 9 -81 11 -95 2 -14 7 -47 10 -75 3 -27 8 -57 10 -65 2 -8 6
-37 10 -65 3 -27 8 -57 10 -65 2 -8 6 -31 9 -50 5 -33 19 -105 31 -160 3 -14
8 -38 11 -54 12 -70 106 -421 139 -526 298 -927 794 -1740 1476 -2420 186
-185 415 -387 554 -490 33 -24 62 -46 65 -50 12 -15 425 -300 435 -300 2 0 50
-28 107 -63 455 -278 1037 -519 1583 -656 215 -53 441 -98 587 -117 24 -3 68
-9 98 -14 30 -5 87 -12 125 -15 39 -4 81 -8 94 -10 163 -26 893 -26 1106 0 17
2 57 6 90 10 182 17 470 67 765 131 65 14 320 87 436 125 509 165 1039 423
1474 718 164 110 401 286 449 332 9 8 38 33 65 55 193 154 494 452 695 689 52
61 103 121 115 135 12 14 35 43 51 65 17 22 32 42 35 45 43 42 284 398 380
560 40 69 80 136 89 150 69 111 250 489 339 710 113 278 242 708 296 980 3 14
10 50 15 80 6 30 13 66 16 80 15 73 51 326 60 430 3 25 7 63 10 85 14 108 19
257 20 540 0 313 -7 472 -31 665 -3 25 -7 63 -10 85 -2 22 -7 51 -9 65 -2 14
-7 47 -10 73 -3 27 -19 119 -35 205 -25 133 -38 197 -65 312 -1 8 -11 44 -20
80 -9 36 -19 73 -20 83 -3 15 -36 126 -66 222 -52 168 -175 495 -235 623 -19
40 -34 75 -34 78 0 12 -175 354 -232 452 -185 322 -298 487 -561 822 -26 33
-113 137 -143 170 -111 123 -161 176 -259 274 -126 127 -237 231 -315 296 -29
25 -70 59 -89 76 -20 18 -74 62 -121 98 -47 37 -92 72 -101 80 -57 47 -239
172 -469 322 -187 121 -567 315 -865 440 -129 54 -351 132 -580 204 -43 13
-345 91 -375 97 -14 2 -45 9 -70 14 -49 12 -48 11 -205 39 -118 20 -135 23
-265 40 -47 6 -99 13 -115 15 -17 2 -64 7 -105 10 -41 3 -95 8 -120 11 -52 6
-696 15 -701 10z"/>
</g>
</svg>
